# xmcd CD database file
#
# Track frame offsets:
#	150
#	37894
#	69740
#	119574
#	148785
#	171271
#	192361
#	242436
#	267091
#
# Disc length: 3944 seconds
#
# Revision: 0
# Processed by: cddbd v1.5.2PL0 Copyright (c) Steve Scherf et al.
# Submitted via: CDex 1.70beta2
#
DISCID=810f6609
DTITLE=DYLAN HOWE - Subterranean - New Designs On Bowie's Berlin
DYEAR=2014
DGENRE=Jazz
TTITLE0=Subterraneans
TTITLE1=Weeping Wall
TTITLE2=All Saints
TTITLE3=Some Are
TTITLE4=Neukoln(Night)
TTITLE5=Art Decade
TTITLE6=Warszawa
TTITLE7=Neukoln(Day)
TTITLE8=Moss Garden
EXTD=YEAR: 2014
EXTT0=
EXTT1=
EXTT2=
EXTT3=
EXTT4=
EXTT5=
EXTT6=
EXTT7=
EXTT8=
PLAYORDER=
